<!DOCTYPE svg PUBLIC "-//W3C//DTD SVG 20010904//EN" "http://www.w3.org/TR/2001/REC-SVG-20010904/DTD/svg10.dtd">
<svg version="1.0" xmlns="http://www.w3.org/2000/svg" width="25px" height="24px" viewBox="0 0 250 240" preserveAspectRatio="xMidYMid meet">
<g id="layer101" fill='#00805F' stroke="none">
 <path d="M4 197 c-3 -8 -4 -47 -2 -88 l3 -74 120 0 120 0 0 85 0 85 -118 3 c-92 2 -119 0 -123 -11z m171 -32 c-38 -31 -63 -31 -99 0 l-29 25 79 0 79 -1 -30 -24z m-95 -45 c0 -4 -11 -15 -25 -24 l-25 -16 0 40 0 40 25 -16 c14 -9 25 -20 25 -24z m138 -20 c-3 -19 -3 -19 -28 0 l-25 20 25 20 c25 19 25 19 28 0 2 -11 2 -29 0 -40z m-30 -37 c11 -11 0 -13 -62 -13 -42 0 -76 2 -76 5 0 2 17 16 37 29 35 25 38 25 63 9 14 -9 31 -23 38 -30z"/>
 </g>

</svg>