<?xml version="1.0" standalone="no"?>
<!DOCTYPE svg PUBLIC "-//W3C//DTD SVG 20010904//EN"
 "http://www.w3.org/TR/2001/REC-SVG-20010904/DTD/svg10.dtd">
<svg version="1.0" xmlns="http://www.w3.org/2000/svg"
 width="25.000000pt" height="27.000000pt" viewBox="0 0 25.000000 27.000000"
 preserveAspectRatio="xMidYMid meet">

<g transform="translate(0.000000,27.000000) scale(0.100000,-0.100000)"
fill='#00805F'  stroke="none">
<path d="M73 258 c-39 -19 -47 -67 -23 -131 29 -76 68 -117 113 -117 47 0 65
22 43 55 -16 24 -56 35 -56 15 0 -25 -32 -6 -50 30 -25 49 -25 70 -1 70 27 0
36 36 17 65 -9 14 -17 25 -19 24 -1 0 -12 -5 -24 -11z"/>
</g>
</svg>
