<svg version="1.0" xmlns="http://www.w3.org/2000/svg" width="1706.667" height="1616" viewBox="0 0 1280 1212"><path d="M434.5 1.2C340.6 8 251 40.7 178.5 94.8c-33.2 24.8-64.9 55.8-89.5 87.7-101.1 130.8-117.2 305.3-41.6 451C107 748.2 215.6 832.7 346.5 866c40.7 10.3 78.9 15 122.5 15 74.1 0 142.2-14.9 208.4-45.6 8.7-4.1 16-7.4 16.1-7.4.1 0 5.2 6.2 11.2 13.8 16 19.9 32.7 39.5 65.1 76.2 115.8 131.3 218.3 234.8 265.8 268.2 16.8 11.9 33.6 18.7 56.1 23 9.7 1.8 15.4 2.2 31.8 2.2 25 .1 41.5-2.4 65.5-9.9 12.2-3.8 33.2-14.3 42.5-21.2 22.9-17.1 38.9-42.7 45.6-73.4 2-8.7 2.3-13.3 2.3-27.4 0-18.4-1.7-29.1-7-45.1-2.4-7.2-10.1-24.4-13.8-30.4-.8-1.4-2.9-5.4-4.6-8.9-4.2-8.6-7.7-13.5-18-25.5-33.7-39.3-129.1-113.3-249-193.3-52.2-34.8-104.3-67.2-124.8-77.7l-9.1-4.7 7.4-10.7c77.6-111.8 97.9-247.3 55.9-374C870.1 169.2 751 59.2 601.2 18 547.5 3.2 488.5-2.8 434.5 1.2zM515 119.4c82 10.8 152.8 44 208.4 97.7 63.7 61.5 97.6 139.5 97.6 224.4-.1 145.6-106.6 273.4-260 311.9-44.9 11.2-94.2 14-141.5 8-115.3-14.6-218-83.8-268.1-180.7-19.2-37.3-29.7-73-33.5-114.1-1.6-17.2-.6-52.7 2-69.6 8.2-53.9 30.3-104 65.1-148 11.1-14.1 40.8-43.4 55-54.4 55.3-42.8 119.1-68.5 187.5-75.6 5.5-.5 11.6-1.2 13.5-1.4 9.1-1 62.2.3 74 1.8z"/><path d="M456.5 135.7c-12.7 1.1-34.7 4.9-47.9 8.2-71.6 18.3-122.4 61.7-132.2 112.9-1.6 8.6-1.8 24.1-.4 33 1.1 6.6 5.9 22.7 6.5 22 .3-.2-.2-2.6-1-5.3-.8-2.6-1.3-5.1-1-5.3.3-.3.5-.1.5.5 0 1.2 14 2.1 56 3.4 17.3.5 45.1 1.4 61.8 1.9 77.4 2.5 92.7 3 122.2 4 141.8 4.7 156.3 5 157.7 3.8 1.1-.9 1.2-.6.4 1.6-.6 1.4-1.8 4-2.6 5.6-.9 1.7-1.3 3-1 3 1 0 6.7-12.6 9.5-21 25.6-78.2-52.8-155-171-167.5-12.1-1.3-46.3-1.8-57.5-.8zM284 315.9c0 .6.4 1.3 1 1.6.6.3.7-.1.4-.9-.7-1.8-1.4-2.1-1.4-.7zM673 328c-.6 1.1-.8 2-.6 2 .3 0 1-.9 1.6-2 .6-1.1.8-2 .6-2-.3 0-1 .9-1.6 2z"/></svg>