<!DOCTYPE svg PUBLIC "-//W3C//DTD SVG 20010904//EN" "http://www.w3.org/TR/2001/REC-SVG-20010904/DTD/svg10.dtd">
<svg version="1.0" xmlns="http://www.w3.org/2000/svg" width="24px" height="24px" viewBox="0 0 240 240" preserveAspectRatio="xMidYMid meet">
<g id="layer101" fill="#606363" stroke="none">
 <path d="M73 226 c-36 -17 -73 -69 -73 -104 0 -57 64 -122 121 -122 41 0 92 40 108 85 12 35 11 45 -2 77 -26 62 -94 90 -154 64z m108 -45 c37 -37 38 -79 3 -120 -18 -22 -35 -31 -56 -31 -88 0 -128 83 -72 149 35 42 84 43 125 2z"/>
 <path d="M131 147 c-21 -24 -30 -87 -11 -87 6 0 10 12 10 27 0 15 9 37 21 49 11 12 16 24 11 28 -5 3 -19 -5 -31 -17z"/>
 </g>

</svg>