<?xml version="1.0" standalone="no"?>
<!DOCTYPE svg PUBLIC "-//W3C//DTD SVG 20010904//EN"
 "http://www.w3.org/TR/2001/REC-SVG-20010904/DTD/svg10.dtd">
<svg version="1.0" xmlns="http://www.w3.org/2000/svg"
 width="1280.000000pt" height="1212.000000pt" viewBox="0 0 1280.000000 1212.000000"
 preserveAspectRatio="xMidYMid meet">
<metadata>
Created by potrace 1.15, written by Peter Selinger 2001-2017
</metadata>
<g transform="translate(0.000000,1212.000000) scale(0.100000,-0.100000)"
fill="#000000" stroke="none">
<path d="M4345 12108 c-939 -68 -1835 -395 -2560 -936 -332 -248 -649 -558
-895 -877 -1011 -1308 -1172 -3053 -416 -4510 596 -1147 1682 -1992 2991
-2325 407 -103 789 -150 1225 -150 741 0 1422 149 2084 456 87 41 160 74 161
74 1 0 52 -62 112 -138 160 -199 327 -395 651 -762 1158 -1313 2183 -2348
2658 -2682 168 -119 336 -187 561 -230 97 -18 154 -22 318 -22 250 -1 415 24
655 99 122 38 332 143 425 212 229 171 389 427 456 734 20 87 23 133 23 274 0
184 -17 291 -70 451 -24 72 -101 244 -138 304 -8 14 -29 54 -46 89 -42 86 -77
135 -180 255 -337 393 -1291 1133 -2490 1933 -522 348 -1043 672 -1248 777
l-91 47 74 107 c776 1118 979 2473 559 3740 -463 1400 -1654 2500 -3152 2912
-537 148 -1127 208 -1667 168z m805 -1182 c820 -108 1528 -440 2084 -977 637
-615 976 -1395 976 -2244 -1 -1456 -1066 -2734 -2600 -3119 -449 -112 -942
-140 -1415 -80 -1153 146 -2180 838 -2681 1807 -192 373 -297 730 -335 1141
-16 172 -6 527 20 696 82 539 303 1040 651 1480 111 141 408 434 550 544 553
428 1191 685 1875 756 55 5 116 12 135 14 91 10 622 -3 740 -18z"/>
<path d="M4565 10763 c-127 -11 -347 -49 -479 -82 -716 -183 -1224 -617 -1322
-1129 -16 -86 -18 -241 -4 -330 11 -66 59 -227 65 -220 3 2 -2 26 -10 53 -8
26 -13 51 -10 53 3 3 5 1 5 -5 0 -12 140 -21 560 -34 173 -5 451 -14 618 -19
774 -25 927 -30 1222 -40 1418 -47 1563 -50 1577 -38 11 9 12 6 4 -16 -6 -14
-18 -40 -26 -56 -9 -17 -13 -30 -10 -30 10 0 67 126 95 210 256 782 -528 1550
-1710 1675 -121 13 -463 18 -575 8z"/>
<path d="M2840 8961 c0 -6 4 -13 10 -16 6 -3 7 1 4 9 -7 18 -14 21 -14 7z"/>
<path d="M6730 8840 c-6 -11 -8 -20 -6 -20 3 0 10 9 16 20 6 11 8 20 6 20 -3
0 -10 -9 -16 -20z"/>
</g>
</svg>
